# xmcd CD database file
#
# Track frame offsets:
#	150
#	18402
#	40995
#	55929
#	74842
#	93945
#	110812
#	127830
#	142609
#	160320
#	176271
#	195972
#
# Disc length: 2830 seconds
#
# Revision: 0
# Processed by: cddbd v1.5.2PL0 Copyright (c) Steve Scherf et al.
# Submitted via: CDex 1.81
#
DISCID=9b0b0c0c
DTITLE=Silje Nergaard - at first light
DYEAR=2001
DGENRE=Jazz
TTITLE0=there is always a first time
TTITLE1=be still my heart
TTITLE2=let there be love
TTITLE3=so sorry for your love
TTITLE4=now and then
TTITLE5=two sleepy people
TTITLE6=keep on backing losers
TTITLE7=blame it on the sun
TTITLE8=at first light
TTITLE9=there is  trouble bewing
TTITLE10=japanese blues
TTITLE11=lullaby to erle
EXTD=YEAR: 2001
EXTT0=
EXTT1=
EXTT2=
EXTT3=
EXTT4=
EXTT5=
EXTT6=
EXTT7=
EXTT8=
EXTT9=
EXTT10=
EXTT11=
PLAYORDER=
